<svg xmlns="http://www.w3.org/2000/svg" viewBox="0 0 512 512"><path fill="#1877F2" d="M512 256C512 114.6 397.4 0 256 0S0 114.6 0 256c0 127.8 93.6 233.7 216 252.9V330H151V256h65v-56.4c0-64.2 38.2-99.7 96.7-99.7 28 0 57.3 5 57.3 5v63h-32.3c-31.8 0-41.7 19.7-41.7 39.9V256h71l-11.4 74H296.9v178.9C419.4 489.7 512 383.8 512 256z"/><path fill="#fff" d="M355.6 330 367 256h-71v-48.2c0-20.2 9.9-39.9 41.7-39.9H370v-63s-29.3-5-57.3-5c-58.5 0-96.7 35.5-96.7 99.7V256h-65v74h65v178.9c13 2 26.4 3.1 40 3.1s27-1.1 40-3.1V330h56.6z"/></svg>
